<svg width="512" height="512" xmlns="http://www.w3.org/2000/svg">

 <g>
  <title>background</title>
  <rect fill="none" id="canvas_background" height="602" width="802" y="-1" x="-1"/>
 </g>
 <g>
  <title>Layer 1</title>
  <path id="svg_13" fill="#838383" d="m175,78.4252c-30.792,4.1914 -57.944,21.1368 -68.91,51.5748c-16.2542,45.117 10.62,95.718 57.91,105.789c7.314,1.558 14.496,2.823 22,1.926c33.163,-3.967 61.781,-23.54 71.561,-56.715c13.219,-44.838 -15.911,-93.8424 -62.561,-101.4105c-6.659,-1.0803 -13.261,-2.0817 -20,-1.1643z"/>
  <path id="svg_122" fill="#1f75a9" d="m323,193.468c-13.312,2.511 -26.748,11.598 -39,17.223c-5.995,2.753 -13.283,4.873 -17.427,10.352c-3.914,5.174 -2.573,12.851 -2.573,18.957c0.001,12.213 0.673,24.844 1.83,37c0.695,7.298 0.538,13.667 4.97,20c6.275,8.965 17.059,13.912 26.2,19.4c16.394,9.841 32.822,19.728 49,29.919c12.541,7.899 25.4,15.299 38,23.105c6.635,4.111 13.675,9.646 22,8.243c9.901,-1.67 14.491,-12.998 19.189,-20.667c11.409,-18.622 22.681,-37.331 34.014,-56c5.074,-8.358 12.183,-16.704 8.234,-26.999c-1.944,-5.067 -6.048,-7.547 -10.437,-10.32c-6.921,-4.372 -14.061,-8.388 -21,-12.731c-22.822,-14.286 -46.179,-27.715 -69,-42c-13.706,-8.58 -26.909,-18.707 -44,-15.482z"/>
  <path id="svg_282" fill="#838383" d="m129,240.596c-8.981,0.446 -18.225,5.055 -26,9.186c-20.9853,11.147 -38.3429,31.29 -45.2292,54.218c-4.1199,13.717 -4.7708,27.782 -4.7708,42l0,25c0,3.199 -0.7798,7.776 1.0278,10.61c1.9481,3.054 6.8224,4.635 9.9722,6.081c8.1759,3.754 16.4782,7.403 25,10.306c36.923,12.578 75.167,17.573 114,14.913c26.353,-1.804 52.318,-8.458 77,-17.591c6.443,-2.385 12.789,-5.165 19,-8.1c2.718,-1.284 6.364,-2.55 8.397,-4.856c2.166,-2.458 1.602,-6.336 1.603,-9.363l0,-20c0,-2.963 0.636,-6.895 -0.603,-9.671c-2.482,-5.56 -13.364,-9.709 -18.397,-12.729c-13.071,-7.842 -26.524,-15.07 -34.546,-28.6c-6.967,-11.75 -7.389,-26.671 -7.453,-40c-0.022,-4.6 1.952,-14.689 -2.319,-17.721c-11.988,-8.514 -24.252,1.215 -35.682,5.282c-12.192,4.338 -27.166,5.817 -40,4.15c-8.844,-1.149 -17.748,-3.821 -26,-7.164c-4.677,-1.895 -9.795,-6.209 -15,-5.951z"/>
 </g>
</svg>